<svg xmlns="http://www.w3.org/2000/svg" style="display: none;"><symbol id="dumbbell" viewBox="0 0 512.001 512.001"><title>dumbbell</title><path d="m458.048 0-229.024 229.024 12.833 41.119 41.12 12.834 229.023-229.025z" fill="#d2d2d7"/><path d="m-20.456 332.363h323.889v76.3h-323.889z" fill="#ebebf0" transform="matrix(.707 -.707 .707 .707 -220.551 208.568)"/><path d="m461.902 188.837 46.245-46.244-138.734-138.735-60.388 60.388z" fill="#2d2d2d"/><path d="m64.242 309.029-60.387 60.388 138.734 138.734 46.245-46.245z" fill="#4b5055"/><path d="m108.293 234.763h76.3v261.6h-76.3z" fill="#696e73" transform="matrix(-.707 .707 -.707 -.707 508.485 520.504)"/><path d="m327.409 15.646h76.3v261.6h-76.3z" fill="#4b5055" transform="matrix(.707 -.707 .707 .707 3.517 301.383)"/></symbol><symbol id="timetable" viewBox="0 0 512.076 512.076"><title>timetable</title><path d="m452.034 162.572h-215.997l20.001 349.504h195.996z" fill="#ebebf0"/><path d="m60.042 162.572h195.996v349.504h-195.996z" fill="#fff5f5"/><path d="m256.038 0-20.001 114.409 20.001 63.163h256.006z" fill="#c47e4e"/><path d="m.032 177.572h256.006v-177.572z" fill="#e1bb78"/><path d="m256.038 207.574-20.001 122.248 20.001 122.248c67.408 0 122.248-54.84 122.248-122.248s-54.84-122.248-122.248-122.248z" fill="#d2d2d7"/><path d="m133.79 329.822c0 67.408 54.84 122.248 122.248 122.248v-244.496c-67.408 0-122.248 54.84-122.248 122.248z" fill="#ebebf0"/><path d="m256.038 237.574-20.001 92.248 20.001 92.248c50.866 0 92.248-41.382 92.248-92.248s-41.382-92.248-92.248-92.248z" fill="#ebebf0"/><path d="m163.79 329.822c0 50.866 41.382 92.248 92.248 92.248v-184.496c-50.866 0-92.248 41.382-92.248 92.248z" fill="#fff5f5"/><path d="m318.286 344.822h-77.248v-77.248h30v47.248h47.248z" fill="#696e73"/></symbol><symbol id="stationary-bike" viewBox="0 0 512 512"><title>stationary-bike</title><path d="m141.844 354.409-33.265-279.405h60.003l30.955 259.993z" fill="#ebebf0"/><path d="m399.049 165.01h-57.462l20.002 125.653 22.475.214z" fill="#d2d2d7"/><path d="m339.045 165.01-14.917 125.295 37.461.358v-125.653z" fill="#ebebf0"/><path d="m361.63 512c66.372 0 120.369-53.998 120.369-120.37 0-39.228-18.27-74.855-50.126-97.748-21.029-15.112-45.43-22.837-70.284-22.747l-20.002 120.455 20.002 120.41z" fill="#ebebf0"/><path d="m117.818 346.667c-34.58 11.635-57.813 43.966-57.813 80.451 0 46.805 38.078 84.883 84.883 84.883h216.701v-240.866c-12.795.046-25.709 2.159-38.345 6.41z" fill="#fff5f5"/><path d="m361.589 316.179-20.001 75.388 20.001 75.433c41.581 0 75.41-33.829 75.41-75.41 0-41.582-33.829-75.411-75.41-75.411z" fill="#0fa9dd"/><path d="m286.178 391.59c0 41.581 33.829 75.41 75.41 75.41v-150.821c-41.581 0-75.41 33.829-75.41 75.411z" fill="#00d7df"/><path d="m223.586 90.004h-132.649c-33.601 0-60.937-27.336-60.937-60.937v-29.067h30v29.067c0 17.059 13.878 30.937 30.937 30.937h132.648v30z" fill="#4b5055"/><path d="m361.589 346.179-20.001 45.41 20.001 45.411c25.039 0 45.41-20.371 45.41-45.41 0-25.04-20.371-45.411-45.41-45.411z" fill="#00d7df"/><path d="m316.178 391.59c0 25.039 20.371 45.41 45.41 45.41v-90.821c-25.039 0-45.41 20.371-45.41 45.411z" fill="#beebfa"/><path d="m481.999 120.009h-30v30h-90.41l-10.001 15.001 10.001 14.999h120.41z" fill="#2d2d2d"/><path d="m286.587 150.009h75.002v30h-75.002z" fill="#4b5055"/></symbol><symbol id="clipboard" viewBox="0 0 512 512"><title>clipboard</title><path d="m391.458 30.002h-75.004l-125.993 20.001 20.001 461.997h180.996z" fill="#c47e4e"/><path d="m104.47 30.002h-75.004v481.998h180.996v-461.997z" fill="#e1bb78"/><path d="m361.458 60.002h-45.004l-125.993 20.001 20.001 401.997h150.996z" fill="#ebebf0"/><path d="m104.47 60.002h-45.004v421.998h150.996v-401.997z" fill="#fff5f5"/><path d="m316.454 30.002h-31.277c-20.027-19.143-46.889-30.002-74.715-30.002l-20.002 50.003 20.001 40.331h105.992v-60.332z" fill="#d2d2d7"/><path d="m135.748 30.002h-31.278v60.331h105.992v-90.333c-27.826 0-54.688 10.859-74.714 30.002z" fill="#ebebf0"/><path d="m89.466 180.011h30.002v30h-30.002z" fill="#d2d2d7"/><path d="m89.466 240.015h30.002v30h-30.002z" fill="#d2d2d7"/><path d="m89.466 300.019h30.002v30h-30.002z" fill="#d2d2d7"/><path d="m331.458 240.015h-120.996l-10.001 15.985 10.001 14.015h120.996z" fill="#a0a0a5"/><path d="m351.459 180.011h-140.997l-10.001 15.985 10.001 14.015h140.997z" fill="#a0a0a5"/><path d="m331.458 300.019h-120.996l-10.001 15.985 10.001 14.015h120.996z" fill="#a0a0a5"/><g fill="#d2d2d7"><path d="m149.47 180.011h60.992v30h-60.992z"/><path d="m149.47 240.015h60.992v30h-60.992z"/><path d="m149.47 300.019h60.992v30h-60.992z"/><path d="m433.514 220.464h45.004v30h-45.004z" transform="matrix(.707 -.707 .707 .707 -32.934 391.418)"/></g><path d="m421.466 150.009h-45.005l-20.001 80.131h65.006z" fill="#2d2d2d"/><path d="m331.456 150.009h45.005v80.13h-45.005z" fill="#4b5055"/><path d="m376.461 210.013-20.001 105.006 20.001 105.006c57.9 0 105.005-47.105 105.005-105.005s-47.104-105.007-105.005-105.007z" fill="#4b5055"/><path d="m271.456 315.019c0 57.9 47.105 105.005 105.005 105.005v-210.011c-57.9 0-105.005 47.106-105.005 105.006z" fill="#696e73"/><path d="m376.461 240.013-20.002 74.393 20.001 75.618c41.357 0 75.005-33.647 75.005-75.005.001-41.358-33.646-75.006-75.004-75.006z" fill="#ebebf0"/><path d="m301.456 315.019c0 41.358 33.647 75.005 75.005 75.005v-150.011c-41.358 0-75.005 33.648-75.005 75.006z" fill="#fff5f5"/></symbol></svg>